<svg width="23" height="21" viewBox="0 0 23 21" fill="none" xmlns="http://www.w3.org/2000/svg">
<path d="M22.5496 0.884465C22.1796 0.545439 21.6537 0.432461 21.177 0.589553L0.953747 7.256C0.4026 7.43767 0.0288501 7.92965 0.00158248 8.50928C-0.0256402 9.08895 0.300268 9.61386 0.831873 9.84651L5.83325 12.0347C5.85764 12.148 7.29339 18.807 7.34222 19.0334C7.40489 19.3241 7.55246 19.5831 7.86507 19.6627C8.18127 19.7433 8.40467 19.5704 8.6406 19.3938C8.7719 19.2955 12.352 16.6147 12.352 16.6147L16.691 20.1653C16.9437 20.3722 17.2526 20.4801 17.5676 20.4801C17.7175 20.4801 17.8689 20.4556 18.0162 20.4057C18.4728 20.2508 18.8114 19.8781 18.9217 19.4087L22.9632 2.22601C23.078 1.73749 22.9196 1.22349 22.5496 0.884465ZM8.9639 13.2887C8.96143 13.2945 8.959 13.3011 8.95671 13.309L8.12009 16.232L7.18643 11.9017L13.6065 8.33471L9.11789 13.0281C9.04719 13.102 8.99517 13.1914 8.9639 13.2887ZM9.22943 17.2654L9.60943 15.9377L9.97289 14.6678L11.2752 15.7335L9.22943 17.2654ZM21.6482 1.91668L17.6068 19.0994C17.6048 19.1079 17.6021 19.1197 17.5823 19.1264C17.5628 19.133 17.5532 19.1254 17.5465 19.1199L12.7987 15.2347C12.7985 15.2346 12.7984 15.2344 12.7983 15.2344L10.5985 13.4342L17.6658 6.04469C17.8966 5.80332 17.9163 5.42953 17.7123 5.16516C17.5081 4.90075 17.1414 4.82524 16.8496 4.98749L6.38498 10.8017L1.37336 8.60892C1.35809 8.60227 1.34969 8.59854 1.3509 8.57271C1.35211 8.54697 1.36083 8.54405 1.37664 8.53884L21.5999 1.87243C21.6097 1.86924 21.6208 1.86556 21.637 1.88038C21.6533 1.8953 21.6506 1.90662 21.6482 1.91668Z" fill="white"/>
</svg>
